<svg width="24" height="24" fill="none" xmlns="http://www.w3.org/2000/svg"><g clip-path="url(#clip0_3_17)"><path d="M24 12.073C24 5.404 18.625-.002 12-.002 5.37 0-.005 5.404-.005 12.075c0 6.025 4.39 11.02 10.125 11.926v-8.438H7.076v-3.489h3.048V9.413c0-3.025 1.793-4.696 4.533-4.696 1.314 0 2.687.235 2.687.235v2.97H15.83c-1.49 0-1.954.932-1.954 1.887v2.265h3.327l-.531 3.489h-2.798V24C19.61 23.093 24 18.099 24 12.073z" fill="#EAB308"/></g><defs><clipPath id="clip0_3_17"><path fill="#fff" d="M0 0h24v24H0z"/></clipPath></defs></svg>