<svg width="24" height="24" fill="none" xmlns="http://www.w3.org/2000/svg"><g clip-path="url(#clip0_3_7)"><path d="M12 0a12 12 0 00-4.372 23.178c-.105-.95-.201-2.409.04-3.445.22-.938 1.407-5.966 1.407-5.966s-.358-.718-.358-1.78c0-1.67.967-2.915 2.172-2.915 1.023 0 1.518.768 1.518 1.69 0 1.03-.656 2.569-.995 3.995-.282 1.194.6 2.169 1.778 2.169 2.133 0 3.772-2.25 3.772-5.496 0-2.873-2.065-4.881-5.013-4.881-3.414 0-5.418 2.56-5.418 5.206 0 1.032.398 2.138.893 2.74a.36.36 0 01.084.345c-.092.377-.294 1.194-.333 1.36-.053.219-.174.265-.402.16-1.5-.697-2.436-2.888-2.436-4.65 0-3.784 2.75-7.26 7.929-7.26 4.162 0 7.398 2.966 7.398 6.93 0 4.136-2.609 7.464-6.227 7.464-1.216 0-2.36-.631-2.75-1.378l-.748 2.853c-.271 1.043-1.003 2.349-1.492 3.146A11.999 11.999 0 1012 0z" fill="#1F2937"/></g><defs><clipPath id="clip0_3_7"><path fill="#fff" d="M0 0h24v24H0z"/></clipPath></defs></svg>